<svg id="visual" viewBox="0 0 900 450" width="900" height="450" xmlns="http://www.w3.org/2000/svg" xmlns:xlink="http://www.w3.org/1999/xlink" version="1.1"><rect width="900" height="450" fill="#ffffff"></rect><g><g transform="translate(899 141)"><path d="M90.1 -28.7C101.4 5.4 84.4 49.2 53.9 70.5C23.4 91.8 -20.8 90.6 -48.7 69.7C-76.6 48.8 -88.2 8.2 -77.4 -25.3C-66.6 -58.8 -33.3 -85.2 3.1 -86.2C39.4 -87.2 78.8 -62.8 90.1 -28.7Z" stroke="#0891B2" fill="none" stroke-width="20"></path></g><g transform="translate(743 422)"><path d="M68.2 -22.3C75.6 0.5 59.9 30.7 35.1 48.8C10.3 67 -23.7 73.1 -46.8 57.9C-70 42.6 -82.4 5.9 -72.8 -20C-63.2 -45.8 -31.6 -60.9 -0.6 -60.7C30.4 -60.5 60.8 -45.1 68.2 -22.3Z" stroke="#0891B2" fill="none" stroke-width="20"></path></g><g transform="translate(312 144)"><path d="M44.4 -13.1C50.8 5.5 44.8 29.4 29.8 40.2C14.7 50.9 -9.3 48.4 -24.7 36.6C-40.2 24.8 -46.9 3.7 -41.4 -13.6C-35.8 -30.9 -17.9 -44.3 0.5 -44.5C19 -44.7 37.9 -31.6 44.4 -13.1Z" stroke="#0891B2" fill="none" stroke-width="20"></path></g></g></svg>